<svg viewBox="0 0 541 541" xmlns="http://www.w3.org/2000/svg" xmlns:xlink="http://www.w3.org/1999/xlink" width="541.000000" height="541.000000" fill="none">
	<defs>
		<g id="pixso_custom_effect_4">
			<effect x="0.000000" y="0.000000" visibility="visible" fill="rgb(105,184,126)" fill-opacity="0.0500000007" effectType="dropShadow" stdDeviation="0" radius="22" />
			<effect x="0.000000" y="0.000000" visibility="visible" fill="rgb(120,230,150)" fill-opacity="0.0300000012" effectType="dropShadow" stdDeviation="0" radius="37" />
			<effect x="0.000000" y="0.000000" visibility="visible" fill="rgb(105,184,126)" fill-opacity="0.300000012" effectType="dropShadow" stdDeviation="104" radius="2" />
			<effect x="0.000000" y="0.000000" visibility="visible" fill="rgb(105,184,126)" fill-opacity="0.0399999991" effectType="dropShadow" stdDeviation="0" radius="50" />
		</g>
		<filter id="filter_4" width="541.000000" height="541.000000" x="0.000000" y="0.000000" filterUnits="userSpaceOnUse" customEffect="url(#pixso_custom_effect_4)" color-interpolation-filters="sRGB">
			<feFlood flood-opacity="0" result="BackgroundImageFix" />
			<feColorMatrix result="hardAlpha" in="SourceAlpha" type="matrix" values="0 0 0 0 0 0 0 0 0 0 0 0 0 0 0 0 0 0 127 0 " />
			<feOffset dx="-0.000000" dy="-0.000000" in="hardAlpha" />
			<feMorphology radius="22" operator="dilate" />
			<feOffset dx="0.000000" dy="0.000000" />
			<feComposite k2="-1" k3="1" in2="hardAlpha" operator="out" />
			<feColorMatrix type="matrix" values="0 0 0 0 0.411765 0 0 0 0 0.721569 0 0 0 0 0.494118 0 0 0 0.05 0 " />
			<feBlend result="effect_dropShadow_1" in2="BackgroundImageFix" mode="normal" />
			<feColorMatrix result="hardAlpha" in="SourceAlpha" type="matrix" values="0 0 0 0 0 0 0 0 0 0 0 0 0 0 0 0 0 0 127 0 " />
			<feOffset dx="-0.000000" dy="-0.000000" in="hardAlpha" />
			<feMorphology radius="37" operator="dilate" />
			<feOffset dx="0.000000" dy="0.000000" />
			<feComposite k2="-1" k3="1" in2="hardAlpha" operator="out" />
			<feColorMatrix type="matrix" values="0 0 0 0 0.470588 0 0 0 0 0.901961 0 0 0 0 0.588235 0 0 0 0.03 0 " />
			<feBlend result="effect_dropShadow_2" in2="effect_dropShadow_1" mode="normal" />
			<feColorMatrix result="hardAlpha" in="SourceAlpha" type="matrix" values="0 0 0 0 0 0 0 0 0 0 0 0 0 0 0 0 0 0 127 0 " />
			<feOffset dx="-0.000000" dy="-0.000000" in="hardAlpha" />
			<feMorphology radius="2" operator="dilate" />
			<feOffset dx="0.000000" dy="0.000000" />
			<feGaussianBlur stdDeviation="34.6666679" />
			<feComposite k2="-1" k3="1" in2="hardAlpha" operator="out" />
			<feColorMatrix type="matrix" values="0 0 0 0 0.411765 0 0 0 0 0.721569 0 0 0 0 0.494118 0 0 0 0.3 0 " />
			<feBlend result="effect_dropShadow_3" in2="effect_dropShadow_2" mode="normal" />
			<feColorMatrix result="hardAlpha" in="SourceAlpha" type="matrix" values="0 0 0 0 0 0 0 0 0 0 0 0 0 0 0 0 0 0 127 0 " />
			<feOffset dx="-0.000000" dy="-0.000000" in="hardAlpha" />
			<feMorphology radius="50" operator="dilate" />
			<feOffset dx="0.000000" dy="0.000000" />
			<feComposite k2="-1" k3="1" in2="hardAlpha" operator="out" />
			<feColorMatrix type="matrix" values="0 0 0 0 0.411765 0 0 0 0 0.721569 0 0 0 0 0.494118 0 0 0 0.04 0 " />
			<feBlend result="effect_dropShadow_4" in2="effect_dropShadow_3" mode="normal" />
			<feBlend result="shape" in="SourceGraphic" in2="effect_dropShadow_4" mode="normal" />
		</filter>
		<linearGradient id="paint_linear_4" x1="176.406052" x2="393.546021" y1="123.107986" y2="422.826965" gradientUnits="userSpaceOnUse">
			<stop stop-color="rgb(47,97,60)" offset="0" stop-opacity="1" />
			<stop stop-color="rgb(0,0,0)" offset="1" stop-opacity="1" />
		</linearGradient>
		<clipPath id="clipPath_0">
			<rect width="329.000000" height="329.000000" x="106.000000" y="106.000000" rx="164.500000" fill="rgb(255,255,255)" />
		</clipPath>
		<g id="pixso_custom_effect_5">
			<effect x="2.000000" y="2.000000" visibility="visible" fill="rgb(149,213,166)" fill-opacity="0.300000012" effectType="innerShadow" stdDeviation="1" radius="0" />
			<effect x="0.000000" y="4.000000" visibility="visible" fill="rgb(0,0,0)" fill-opacity="0.25" effectType="dropShadow" stdDeviation="4" radius="0" />
		</g>
		<filter id="filter_5" width="194.000000" height="203.000000" x="174.000000" y="169.000000" filterUnits="userSpaceOnUse" customEffect="url(#pixso_custom_effect_5)" color-interpolation-filters="sRGB">
			<feFlood flood-opacity="0" result="BackgroundImageFix" />
			<feColorMatrix result="hardAlpha" in="SourceAlpha" type="matrix" values="0 0 0 0 0 0 0 0 0 0 0 0 0 0 0 0 0 0 2.38095 0 " />
			<feOffset dx="0.000000" dy="4.000000" in="hardAlpha" />
			<feGaussianBlur stdDeviation="1.33333337" />
			<feComposite k2="-1" k3="1" in2="hardAlpha" operator="out" />
			<feColorMatrix type="matrix" values="0 0 0 0 0 0 0 0 0 0 0 0 0 0 0 0 0 0 0.25 0 " />
			<feBlend result="effect_dropShadow_1" in2="BackgroundImageFix" mode="normal" />
			<feBlend result="shape" in="SourceGraphic" in2="effect_dropShadow_1" mode="normal" />
			<feColorMatrix result="hardAlpha" in="SourceAlpha" type="matrix" values="0 0 0 0 0 0 0 0 0 0 0 0 0 0 0 0 0 0 2.38095 0 " />
			<feOffset dx="2.000000" dy="2.000000" in="hardAlpha" />
			<feGaussianBlur stdDeviation="0.333333343" />
			<feComposite k2="-1" k3="1" in2="hardAlpha" operator="arithmetic" />
			<feColorMatrix type="matrix" values="0 0 0 0 0.584314 0 0 0 0 0.835294 0 0 0 0 0.65098 0 0 0 0.3 0 " />
			<feBlend result="effect_innerShadow_2" in2="shape" mode="normal" />
		</filter>
		<linearGradient id="paint_linear_5" x1="219.451416" x2="306.869934" y1="187.806824" y2="340.396393" gradientUnits="userSpaceOnUse">
			<stop stop-color="rgb(74,172,100)" offset="0" stop-opacity="1" />
			<stop stop-color="rgb(79,162,102)" offset="0.430379748" stop-opacity="0.612320662" />
			<stop stop-color="rgb(26,56,36)" offset="1" stop-opacity="0.419999987" />
		</linearGradient>
		<g id="pixso_custom_effect_6">
			<effect x="3.000000" y="3.000000" visibility="visible" fill="rgb(250,185,101)" fill-opacity="0.480000019" effectType="innerShadow" stdDeviation="2" radius="0" />
		</g>
		<filter id="filter_6" width="36.000000" height="36.000000" x="254.000000" y="246.000000" filterUnits="userSpaceOnUse" customEffect="url(#pixso_custom_effect_6)" color-interpolation-filters="sRGB">
			<feFlood flood-opacity="0" result="BackgroundImageFix" />
			<feBlend result="shape" in="SourceGraphic" in2="BackgroundImageFix" mode="normal" />
			<feOffset dx="3.000000" dy="3.000000" in="SourceAlpha" />
			<feGaussianBlur stdDeviation="0.666666687" />
			<feComposite k2="-1" k3="1" in2="SourceAlpha" operator="arithmetic" />
			<feColorMatrix type="matrix" values="0 0 0 0 0.980392 0 0 0 0 0.72549 0 0 0 0 0.396078 0 0 0 0.48 0 " />
			<feBlend result="effect_innerShadow_1" in2="shape" mode="normal" />
		</filter>
		<linearGradient id="paint_linear_6" x1="259.5" x2="272" y1="246" y2="264" gradientUnits="userSpaceOnUse">
			<stop stop-color="rgb(248,178,89)" offset="0" stop-opacity="1" />
			<stop stop-color="rgb(149,97,24)" offset="1" stop-opacity="1" />
		</linearGradient>
		<g id="pixso_custom_effect_7">
			<effect x="0.000000" y="1.000000" visibility="visible" fill="rgb(150,215,167)" fill-opacity="0.159999996" effectType="innerShadow" stdDeviation="1" radius="0" />
			<effect x="0.000000" y="4.000000" visibility="visible" fill="rgb(0,0,0)" fill-opacity="0.25" effectType="dropShadow" stdDeviation="4" radius="0" />
		</g>
		<filter id="filter_7" width="165.610840" height="38.300781" x="189.000000" y="365.000000" filterUnits="userSpaceOnUse" customEffect="url(#pixso_custom_effect_7)" color-interpolation-filters="sRGB">
			<feFlood flood-opacity="0" result="BackgroundImageFix" />
			<feOffset dx="0.000000" dy="4.000000" in="SourceAlpha" />
			<feGaussianBlur stdDeviation="1.33333337" />
			<feColorMatrix type="matrix" values="0 0 0 0 0 0 0 0 0 0 0 0 0 0 0 0 0 0 0.25 0 " />
			<feBlend result="effect_dropShadow_1" in2="BackgroundImageFix" mode="normal" />
			<feBlend result="shape" in="SourceGraphic" in2="effect_dropShadow_1" mode="normal" />
			<feOffset dx="0.000000" dy="1.000000" in="SourceAlpha" />
			<feGaussianBlur stdDeviation="0.333333343" />
			<feComposite k2="-1" k3="1" in2="SourceAlpha" operator="arithmetic" />
			<feColorMatrix type="matrix" values="0 0 0 0 0.588235 0 0 0 0 0.843137 0 0 0 0 0.654902 0 0 0 0.16 0 " />
			<feBlend result="effect_innerShadow_2" in2="shape" mode="normal" />
		</filter>
		<linearGradient id="paint_linear_7" x1="271.000031" x2="271.027374" y1="372.600006" y2="406.799988" gradientUnits="userSpaceOnUse">
			<stop stop-color="rgb(83,172,106)" offset="0" stop-opacity="1" />
			<stop stop-color="rgb(11,27,15)" offset="1" stop-opacity="1" />
		</linearGradient>
		<linearGradient id="paint_linear_8" x1="246.820511" x2="252.477753" y1="371.460022" y2="412.580627" gradientUnits="userSpaceOnUse">
			<stop stop-color="rgb(234,152,34)" offset="0" stop-opacity="1" />
			<stop stop-color="rgb(37,18,1)" offset="1" stop-opacity="1" />
		</linearGradient>
	</defs>
	<g clip-path="url(#clipPath_0)" filter="url(#filter_4)" customFrame="url(#clipPath_0)">
		<rect id="LOGO-cc" width="329.000000" height="329.000000" x="106.000000" y="106.000000" rx="164.500000" fill="url(#paint_linear_4)" />
		<g id="Group 26">
			<g id="Group 28">
				<g filter="url(#filter_5)">
					<path id="gp-svg" d="M212.258 333.499C207.729 329.707 203.581 325.649 199.849 321.173C195.477 315.931 191.722 310.292 188.601 304.224C185.882 298.94 183.599 293.485 181.877 287.801C180.182 282.208 178.984 276.503 178.412 270.693C177.884 265.317 177.877 259.935 178.314 254.528C179.349 241.71 182.96 229.679 188.996 218.348C192.134 212.457 195.964 207.034 200.312 201.958C206.232 195.047 213.036 189.151 220.654 184.181C227.151 179.943 234.084 176.581 241.427 174.046C248.074 171.752 254.892 170.133 261.883 169.512C266.91 169.066 271.996 168.881 277.036 169.079C286.22 169.442 295.16 171.278 303.838 174.365C310.85 176.86 317.462 180.133 323.694 184.168C328.169 187.067 332.32 190.379 336.266 193.973C343.546 200.605 349.538 208.241 354.359 216.777C356.249 220.125 357.932 223.61 359.442 227.146C361.688 232.408 357.107 237.935 351.704 237.374C348.472 237.039 346.415 235.144 345.198 232.289C341.436 223.461 336.251 215.574 329.604 208.634C320.649 199.285 310.106 192.387 297.844 188.097C291.815 185.987 285.624 184.712 279.272 184.086C268.255 182.999 257.548 184.366 247.076 187.851C237.958 190.885 229.679 195.457 222.267 201.515C212.727 209.312 205.228 218.728 200.051 229.941C197.23 236.05 195.278 242.412 194.129 249.019C193.111 254.869 192.81 260.791 193.254 266.695C194.133 278.401 197.413 289.433 203.254 299.667C206.145 304.73 209.497 309.472 213.44 313.785C218.316 319.119 223.759 323.811 229.861 327.694C232.664 329.476 235.624 331.022 238.564 332.581C242.951 334.907 244.382 339.469 241.736 343.603C239.764 346.685 235.774 348.036 232.187 346.223C228.272 344.245 224.455 342.04 220.75 339.692C217.818 337.834 215.12 335.611 212.258 333.499ZM300.911 211.247C304.57 213.243 307.916 215.547 311.016 218.201C315.908 222.389 320.06 227.213 323.404 232.706C324.596 234.665 325.677 236.654 325.454 239.134C325.173 242.244 323 244.96 319.757 245.893C316.988 246.69 313.638 245.534 311.936 243.11C310.217 240.66 308.713 238.048 306.858 235.71C302.066 229.672 295.997 225.258 288.841 222.358C282.972 219.98 276.846 218.814 270.515 219.073C264.137 219.335 258.037 220.858 252.313 223.723C246.133 226.817 240.892 231.084 236.736 236.584C232.637 242.011 229.919 248.071 228.649 254.785C227.96 258.427 227.765 262.09 228.084 265.736C228.698 272.738 230.897 279.286 234.854 285.127C236.716 287.875 238.91 290.418 241.115 292.912C243.82 295.973 243.766 300.684 240.807 303.62C237.849 306.555 233.474 306.61 230.423 303.663C221.93 295.457 216.468 285.581 214.063 274.034C213.185 269.824 212.637 265.567 212.79 261.272C213.138 251.53 215.547 242.344 220.422 233.822C223.49 228.458 227.263 223.663 231.817 219.506C238.853 213.084 246.998 208.603 256.215 206.078C261.894 204.523 267.682 203.723 273.563 203.929C283.201 204.266 292.339 206.586 300.911 211.247ZM256.72 271.716C261.999 281.129 274.137 284.076 283.194 276.845C283.562 276.533 283.898 276.3 284.18 276.015C288.061 272.082 290.021 267.455 289.505 261.855C289.097 257.425 287.236 253.717 284.009 250.743C278.097 245.296 269.112 244.92 262.86 248.821C255.084 253.672 252.159 263.581 256.72 271.716ZM301.419 337.882C302.126 334.986 304.094 333.339 306.562 332.135C312.318 329.327 317.607 325.816 322.535 321.74C330.966 314.766 337.636 306.391 342.545 296.656C344.098 293.577 345.278 290.31 346.619 287.125C346.7 286.934 346.697 286.708 346.753 286.381L345.721 286.381C344.309 286.381 342.896 286.382 341.484 286.383C336.613 286.385 331.742 286.387 326.871 286.367C326.195 286.364 325.852 286.536 325.561 287.183C323.298 292.201 320.336 296.783 316.666 300.895C315.612 302.075 314.523 303.256 313.29 304.237C311.084 305.992 308.519 306.365 305.9 305.354C303.162 304.297 301.613 302.241 301.222 299.276C300.856 296.505 301.997 294.358 303.819 292.483C307.63 288.561 310.644 284.125 312.74 279.079C313.269 277.805 313.595 276.416 314.294 275.247C315.804 272.724 318.184 271.518 321.116 271.512C325.345 271.504 329.574 271.509 333.804 271.513C341.143 271.522 348.483 271.53 355.822 271.47C361.635 271.423 364.946 276.052 363.761 281.331C362.564 286.663 361.128 291.914 359.008 296.961C356.509 302.91 353.506 308.588 349.826 313.909C346.164 319.203 342.082 324.139 337.412 328.58C330.004 335.624 321.752 341.494 312.575 346.044C309.705 347.468 306.815 347.4 304.24 345.448C301.804 343.6 300.866 341.019 301.419 337.882ZM275.895 298.521C273.009 296.921 270.186 297.254 267.432 299.128C265.558 300.728 264.437 302.658 264.434 305.066C264.413 322.285 264.4 339.503 264.471 356.722C264.476 357.97 264.935 359.349 265.576 360.438C267.341 363.433 271.071 364.671 274.557 363.645C277.713 362.717 279.904 359.677 279.905 356.145L279.905 355.57C279.911 338.911 279.916 322.252 279.889 305.592C279.884 302.535 278.645 300.045 275.895 298.521Z" fill="url(#paint_linear_5)" fill-rule="evenodd" />
				</g>
				<g filter="url(#filter_6)">
					<ellipse id="orange-circle" rx="18.000000" ry="18.000002" cx="272" cy="264" fill="url(#paint_linear_6)" />
				</g>
			</g>
			<g filter="url(#filter_7)">
				<path id="" d="M293.552 395L293.552 374.001L303.572 374.001Q305.337 374.001 306.795 374.858Q308.252 375.708 309.131 377.18Q310.017 378.652 310.017 380.447Q310.017 382.278 309.102 383.779Q308.194 385.281 306.677 386.182Q305.161 387.083 303.33 387.083L296.79 387.083L296.79 395L293.552 395ZM296.79 383.962L303.176 383.962Q304.107 383.962 304.905 383.486Q305.703 383.003 306.179 382.212Q306.663 381.414 306.663 380.447Q306.663 379.517 306.179 378.77Q305.703 378.022 304.905 377.576Q304.107 377.122 303.176 377.122L296.79 377.122L296.79 383.962ZM318.429 395.3Q315.822 395.3 313.793 394.238Q311.772 393.169 310.6 391.323Q309.428 389.478 309.428 387.112Q309.428 384.739 310.6 382.893Q311.772 381.047 313.793 379.985Q315.822 378.923 318.429 378.923Q321.007 378.923 323.029 379.985Q325.058 381.047 326.23 382.893Q327.401 384.739 327.401 387.112Q327.401 389.478 326.23 391.323Q325.058 393.169 323.029 394.238Q321.007 395.3 318.429 395.3ZM318.429 392.48Q320.077 392.48 321.41 391.777Q322.751 391.067 323.512 389.858Q324.281 388.643 324.252 387.112Q324.281 385.552 323.512 384.336Q322.751 383.12 321.41 382.432Q320.077 381.743 318.429 381.743Q316.781 381.743 315.426 382.446Q314.079 383.149 313.31 384.351Q312.548 385.552 312.577 387.112Q312.548 388.643 313.31 389.858Q314.079 391.067 315.426 391.777Q316.781 392.48 318.429 392.48ZM328.613 395L328.613 379.253L331.733 379.253L331.733 384.497L331.191 383.721Q331.579 382.402 332.51 381.311Q333.44 380.212 334.641 379.568Q335.842 378.923 337.131 378.923Q337.878 378.923 338.581 379.07Q339.292 379.216 339.68 379.458L338.867 382.761Q338.391 382.49 337.746 382.344Q337.102 382.19 336.501 382.19Q335.483 382.19 334.612 382.563Q333.74 382.937 333.096 383.567Q332.451 384.197 332.092 384.995Q331.733 385.793 331.733 386.658L331.733 395L328.613 395ZM342.899 395L342.899 374.873L345.989 374.873L345.989 395L342.899 395ZM338.907 382.249L338.907 379.253L350.611 379.253L350.611 382.249L338.907 382.249Z" fill="url(#paint_linear_8)" fill-rule="nonzero" />
				<path id="" d="M203.084 395.3Q200.646 395.3 198.521 394.531Q196.405 393.762 194.808 392.341Q193.219 390.913 192.325 388.928Q191.432 386.936 191.432 384.534Q191.432 382.249 192.303 380.3Q193.182 378.345 194.764 376.895Q196.346 375.437 198.47 374.639Q200.602 373.833 203.062 373.833Q204.864 373.833 206.534 374.309Q208.204 374.778 209.559 375.569Q210.914 376.353 211.72 377.327L210.218 378.989Q209.325 378.132 208.16 377.51Q206.996 376.88 205.692 376.506Q204.388 376.133 203.092 376.133Q201.151 376.133 199.466 376.763Q197.789 377.393 196.529 378.528Q195.27 379.656 194.574 381.194Q193.885 382.725 193.885 384.534Q193.885 386.445 194.596 387.998Q195.313 389.551 196.603 390.671Q197.899 391.792 199.583 392.4Q201.275 393 203.231 393Q204.85 393 206.292 392.568Q207.743 392.129 208.827 391.345Q209.918 390.554 210.511 389.521Q211.112 388.481 211.09 387.31L211.09 386.387L211.61 387.075L203.165 387.075L203.165 384.768L213.463 384.768Q213.514 385.032 213.536 385.325Q213.558 385.618 213.573 385.896Q213.587 386.174 213.587 386.394Q213.587 388.357 212.774 389.99Q211.969 391.624 210.548 392.81Q209.134 393.997 207.23 394.648Q205.326 395.3 203.084 395.3ZM220.903 395.3Q218.493 395.3 216.655 394.253Q214.824 393.198 213.776 391.36Q212.736 389.514 212.736 387.141Q212.736 384.775 213.813 382.93Q214.897 381.084 216.764 380.029Q218.632 378.975 221.005 378.975Q222.448 378.975 223.693 379.37Q224.938 379.766 225.89 380.461Q226.843 381.15 227.443 381.992Q228.051 382.834 228.176 383.757L227.48 383.53L227.56 379.326L229.78 379.326L229.78 395L227.531 395L227.531 390.935L228.124 390.591Q227.949 391.477 227.319 392.327Q226.689 393.169 225.7 393.843Q224.711 394.509 223.481 394.905Q222.258 395.3 220.903 395.3ZM221.371 393.147Q223.18 393.147 224.601 392.371Q226.022 391.594 226.835 390.247Q227.648 388.892 227.648 387.126Q227.648 385.427 226.843 384.072Q226.037 382.717 224.616 381.919Q223.195 381.121 221.371 381.121Q219.518 381.121 218.105 381.919Q216.691 382.717 215.886 384.072Q215.08 385.427 215.08 387.126Q215.08 388.87 215.864 390.232Q216.655 391.594 218.068 392.371Q219.482 393.147 221.371 393.147ZM232.448 395L232.448 379.326L234.696 379.326L234.777 383.816L234.345 383.53Q234.748 382.278 235.612 381.245Q236.483 380.205 237.648 379.59Q238.812 378.975 240.182 378.975Q240.929 378.975 241.625 379.121Q242.321 379.26 242.753 379.487L242.123 381.956Q241.618 381.663 240.988 381.538Q240.358 381.406 239.816 381.406Q238.615 381.406 237.67 381.831Q236.732 382.249 236.073 382.959Q235.414 383.669 235.07 384.556Q234.726 385.442 234.726 386.401L234.726 395L232.448 395ZM248.792 395.3Q246.419 395.3 244.581 394.231Q242.742 393.162 241.687 391.331Q240.64 389.492 240.64 387.134Q240.64 384.768 241.702 382.93Q242.764 381.091 244.624 380.037Q246.485 378.975 248.843 378.975Q250.242 378.975 251.458 379.341Q252.674 379.707 253.641 380.352Q254.607 380.989 255.245 381.831Q255.882 382.666 256.087 383.596L255.354 383.369L255.354 372.8L257.625 372.8L257.625 395L255.398 395L255.325 390.898L255.918 390.737Q255.735 391.653 255.091 392.466Q254.454 393.271 253.494 393.916Q252.535 394.561 251.326 394.934Q250.118 395.3 248.792 395.3ZM249.187 393.198Q251.004 393.198 252.425 392.407Q253.846 391.616 254.659 390.254Q255.479 388.884 255.479 387.119Q255.479 385.391 254.673 384.028Q253.875 382.659 252.454 381.882Q251.033 381.099 249.187 381.099Q247.386 381.099 245.979 381.882Q244.581 382.659 243.782 384.021Q242.984 385.376 242.984 387.119Q242.984 388.855 243.775 390.232Q244.573 391.602 245.972 392.4Q247.378 393.198 249.187 393.198ZM267.322 395.3Q264.693 395.3 262.642 394.275Q260.599 393.242 259.449 391.433Q258.306 389.617 258.306 387.229Q258.306 385.354 258.973 383.86Q259.639 382.358 260.811 381.252Q261.99 380.146 263.594 379.553Q265.198 378.96 267.044 378.96Q268.802 378.96 270.274 379.517Q271.753 380.066 272.823 381.077Q273.892 382.087 274.471 383.479Q275.049 384.863 275.005 386.541L274.976 387.712L260.137 387.712L259.808 385.815L273.262 385.815L272.713 386.218L272.706 385.5Q272.64 384.402 271.915 383.398Q271.197 382.388 269.944 381.75Q268.699 381.113 267.029 381.113Q265.184 381.113 263.726 381.758Q262.276 382.402 261.441 383.728Q260.606 385.046 260.606 387.083Q260.606 388.928 261.478 390.283Q262.349 391.638 263.931 392.385Q265.52 393.132 267.688 393.132Q269.314 393.132 270.603 392.693Q271.9 392.246 273.233 391.272L274.295 392.964Q273.519 393.594 272.435 394.136Q271.351 394.678 270.061 394.993Q268.78 395.3 267.322 395.3ZM276.218 395L276.218 379.326L278.452 379.326L278.532 383.076L277.998 383.171Q278.415 382.117 279.367 381.157Q280.319 380.198 281.674 379.59Q283.029 378.975 284.553 378.975Q286.545 378.975 287.915 379.773Q289.291 380.564 289.973 382.036Q290.654 383.508 290.654 385.596L290.654 395L288.383 395L288.383 385.837Q288.383 384.285 287.841 383.237Q287.299 382.19 286.296 381.641Q285.3 381.091 283.937 381.106Q282.751 381.106 281.762 381.523Q280.773 381.934 280.026 382.622Q279.279 383.311 278.876 384.16Q278.481 385.01 278.481 385.911L278.481 395L277.353 395Q277.067 395 276.789 395Q276.511 395 276.218 395Z" fill="url(#paint_linear_7)" fill-rule="nonzero" />
			</g>
		</g>
	</g>
</svg>
